<?xml version="1.0" standalone="no"?>
<!DOCTYPE svg PUBLIC "-//W3C//DTD SVG 20010904//EN"
 "http://www.w3.org/TR/2001/REC-SVG-20010904/DTD/svg10.dtd">
<svg version="1.0" xmlns="http://www.w3.org/2000/svg"
 width="1280.000000pt" height="1280.000000pt" viewBox="0 0 1280.000000 1280.000000"
 preserveAspectRatio="xMidYMid meet">
<metadata>
Created by potrace 1.15, written by Peter Selinger 2001-2017
</metadata>
<g transform="translate(0.000000,1280.000000) scale(0.100000,-0.100000)"
fill="#000000" stroke="none">
<path d="M6140 12604 c-891 -50 -1622 -228 -2374 -575 -1022 -473 -1922 -1244
-2556 -2189 -582 -868 -923 -1837 -1026 -2915 -22 -224 -25 -818 -6 -1035 74
-846 280 -1580 648 -2310 510 -1014 1286 -1868 2244 -2472 1651 -1041 3693
-1246 5525 -556 644 243 1261 606 1810 1064 161 135 501 467 648 634 837 949
1360 2105 1516 3350 36 288 45 449 45 790 -1 361 -15 568 -59 878 -140 969
-516 1913 -1077 2704 -629 886 -1488 1604 -2457 2054 -684 316 -1389 501
-2151 564 -133 11 -621 20 -730 14z"/>
</g>
</svg>
